<svg xmlns="http://www.w3.org/2000/svg" viewBox="0 0 64 64" fill="none">
  <rect width="64" height="64" rx="14" fill="#4f46e5" />
  <path
    d="M16 18.5c0-1.4 1.1-2.5 2.5-2.5H30c1.1 0 2 .9 2 2v30c0 1.1-.9 2-2 2H18.5A2.5 2.5 0 0 1 16 49.5v-31Z"
    fill="#fff"
    fill-opacity="0.95"
  />
  <path
    d="M48 18.5c0-1.4-1.1-2.5-2.5-2.5H34c-1.1 0-2 .9-2 2v30c0 1.1.9 2 2 2h11.5a2.5 2.5 0 0 0 2.5-2.5v-31Z"
    fill="#fff"
    fill-opacity="0.78"
  />
  <path d="M32 16v34" stroke="#4f46e5" stroke-width="2.5" stroke-linecap="round" />
</svg>
